# xmcd
#
# Track frame offsets:
#	150
#	10962
#	25381
#	41375
#	51839
#	66133
#	76930
#	90820
#	107845
#	124243
#	138174
#	150366
#	159813
#	184181
#	200440
#	215375
#
# Disc length: 3016 seconds
#
# Revision: 0
# Processed by: cddbd v1.5.1PL0 Copyright (c) Steve Scherf et al.
# Submitted via: EasyCDDAExtractor 7.5.2.1
#
DISCID=c20bc610
DTITLE=Dolly Parton - A Collection Of Hits - Disc 2
DYEAR=1900
DGENRE=Country
TTITLE0=Love Is Like A Butterfly
TTITLE1=Mule Skinner Blues (Blue Yodel No. 8)
TTITLE2=My Blue Ridge Mountain Boy
TTITLE3=My Blue Tears
TTITLE4=My Tennessee Mountain Home
TTITLE5=Put It Off Until Tomorrow
TTITLE6=The Seeker
TTITLE7=Single Women
TTITLE8=Tennessee Homesick Blues
TTITLE9=The Last One To Touch Me
TTITLE10=Touch Your Woman
TTITLE11=Letter To Mama and Daddy
TTITLE12=Amazing Grace
TTITLE13=Romeo
TTITLE14=I Will Always Love You (with Vince Gill)
TTITLE15=Silver Threads And Golden Needles
EXTD=
EXTT0=
EXTT1=
EXTT2=
EXTT3=
EXTT4=
EXTT5=
EXTT6=
EXTT7=
EXTT8=
EXTT9=
EXTT10=
EXTT11=
EXTT12=
EXTT13=
EXTT14=
EXTT15=
PLAYORDER=
